# xmcd
#
# Track frame offsets:
#	150
#	16632
#	31797
#	47290
#	64562
#	79152
#	90932
#	105362
#	117487
#	130867
#	144327
#	159272
#	175005
#	191227
#	207375
#	218122
#	230647
#	241905
#
# Disc length: 3450 seconds
#
# Revision: 1
# Processed by: cddbd v1.5.2PL0 Copyright (c) Steve Scherf et al.
# Submitted via: audiograbber 1.83.01
#
DISCID=dc0d7812
DTITLE=Logue and McCool - The Very Best Of
DYEAR=1996
DGENRE=
TTITLE0=Oh Carmen, El Paso Lady
TTITLE1=There's Nothing I Can Do About It Now
TTITLE2=Old Soldier
TTITLE3=Love Me If You Get There
TTITLE4=Rainbow And Roses
TTITLE5=Got No Reason For Goin' Home
TTITLE6=Shelly's Winter Love
TTITLE7=Imagine That
TTITLE8=Back On My Mind Again
TTITLE9=I'm Beginning To Forget You
TTITLE10=I'm No Stranger To The Rain
TTITLE11=Am I Losing You
TTITLE12=Missing You
TTITLE13=I Just Want To Dance With You
TTITLE14=How Can I Write On Paper
TTITLE15=Leaving Here A Better Man
TTITLE16=Rodeo Man
TTITLE17=This Is Where The Cowboy Rides Away
EXTD=
EXTT0=
EXTT1=
EXTT2=
EXTT3=
EXTT4=
EXTT5=
EXTT6=
EXTT7=
EXTT8=
EXTT9=
EXTT10=
EXTT11=
EXTT12=
EXTT13=
EXTT14=
EXTT15=
EXTT16=
EXTT17=
PLAYORDER=
